<svg width="1286" height="214" viewBox="0 0 1286 214" fill="none" xmlns="http://www.w3.org/2000/svg">
<path d="M127.333 152.629C125.415 148.647 123.93 144.375 122.941 140.006C122.808 139.366 122.687 138.775 122.591 138.244L122.41 137.375L122.385 137.291V137.206C122.108 135.686 121.927 134.262 121.794 132.874C121.408 129.386 121.36 125.862 121.649 122.387C121.854 119.551 122.277 116.739 122.904 113.939C117.136 107.664 108.857 104.116 100.856 103.223C86.8088 101.642 70.0824 107.953 64.3984 125.561C63.3485 128.819 63.0588 131.836 62.7571 134.744C62.2261 140.078 61.7796 144.688 56.6265 149.057C51.3166 153.571 43.5327 155.188 36.3401 153.281C29.9923 151.591 25.1651 147.368 23.1014 141.671C19.6017 132.029 24.1151 115.701 28.0011 107.096C45.7894 67.6821 88.5224 57.9793 121.541 68.7803C129.204 71.2783 136.94 75.1763 143.963 80.5104C144.567 80.0277 145.17 79.5691 145.785 79.1226C146.654 78.5071 147.439 77.952 148.199 77.4693C150.866 75.7315 153.654 74.235 156.514 72.9799C141.839 59.9947 122.76 52.2229 101.677 51.0402C79.8817 49.8092 57.242 57.1708 39.5623 71.218C20.9774 85.9893 9.9955 106.203 8.63181 128.119C7.11123 152.412 22.136 165.337 37.6917 167.364C53.6337 169.452 71.9771 160.461 76.2251 139.234C76.6113 137.339 76.6475 135.734 76.6837 134.322C76.7561 131.86 76.8164 129.724 78.5784 126.466C83.4901 117.427 93.591 115.061 101.423 116.727C108.688 118.259 116.738 123.678 117.582 134.274C119.803 162.042 97.8149 186.975 74.9459 197.257C73.7149 197.812 72.0857 198.259 70.3721 198.741C66.4379 199.827 61.9848 201.07 60.2228 204.281C59.3539 205.886 59.2453 207.792 59.9211 209.953C60.3797 211.437 61.3452 212.547 62.6968 213.187C63.6864 213.657 64.8208 213.851 66.0638 213.851C69.5394 213.851 73.7632 212.306 77.6371 210.737L78.6146 210.339C103.608 200.539 122.144 178.974 128.347 154.717C127.985 154.029 127.635 153.329 127.297 152.629H127.333Z" fill="#E15315"/>
<path d="M93.4447 77.1067C71.5532 78.1083 52.5822 89.4403 42.6985 107.422C40.3573 111.67 32.7423 130.158 35.9765 138.099C36.7368 139.957 38.0764 141.236 39.8504 141.767C42.2881 142.516 44.2914 142.359 45.7879 141.297C48.4791 139.402 48.6842 135.239 48.8532 131.896C48.9135 130.713 48.9618 129.579 49.1187 128.794C54.9717 99.7705 80.9422 87.7869 103.57 90.9488C112.102 92.1435 120.489 95.5226 127.416 101.086C128.044 99.8067 128.708 98.5396 129.432 97.2966C131.001 94.5933 132.799 91.9866 134.79 89.5489C123.458 80.884 108.928 76.3826 93.4447 77.0946V77.1067Z" fill="#E15315"/>
<path d="M100.867 153.269C104.354 142.42 104.897 135.263 102.508 131.402C101.482 129.736 99.9495 128.735 97.9703 128.433C95.9067 128.119 94.2171 128.493 92.9379 129.543C90.4036 131.643 90.2588 135.831 90.1381 139.198C90.0899 140.453 90.0536 141.635 89.8968 142.432C84.7799 168.475 60.9575 182.993 31.97 177.755L31.3546 177.646L30.8477 178.008C26.9014 180.857 25.2722 183.644 25.9963 186.287C26.8532 189.377 30.8718 191.464 37.0265 192.007C39.3195 192.213 41.5883 192.309 43.8209 192.309C71.0826 192.309 93.0827 177.49 100.867 153.269Z" fill="#E15315"/>
<path d="M17.3954 75.5258C19.2297 72.9794 21.1365 70.3365 22.5002 68.9607C41.1574 50.207 68.1657 39.4422 96.6102 39.4422H96.6464C125.006 39.4422 151.906 50.1708 170.491 68.8642C173.604 68.3573 176.766 68.1039 179.916 68.1039C182.656 68.1039 185.371 68.2849 188.05 68.6711C186.433 66.523 184.647 64.4473 183.03 62.6612L182.921 62.5405C162.248 39.6715 131.342 26.3484 98.1428 25.9984C64.3281 25.6605 32.6253 38.5733 11.0234 61.4785C10.5407 61.9854 -0.646393 73.9087 0.0294189 78.217C0.415597 80.7392 2.04479 82.7908 4.37392 83.6959C6.82374 84.6492 9.65974 84.1907 11.7717 82.5132C13.1836 81.3788 15.1266 78.6635 17.3833 75.5258H17.3954Z" fill="#E15315"/>
<path d="M31.5609 28.0504C35.9054 30.283 43.2066 26.5902 49.0596 23.6214C50.894 22.6922 52.4749 21.8836 53.5972 21.4733C82.8381 10.5276 112.924 10.95 143.022 22.7284C144.204 23.187 145.785 24.0559 147.463 24.961C151.131 26.9522 155.21 29.1727 158.408 29.1727C158.964 29.1727 159.507 29.1003 160.001 28.9555L160.243 28.8831L160.448 28.7383C163.38 26.6264 164.732 24.3455 164.455 21.9681C163.839 16.6944 155.391 13.2067 149.792 10.9017L148.754 10.4793C134.152 4.37286 115.808 0.462804 99.6852 0.0404219C81.0279 -0.454369 60.3553 3.61257 42.9652 11.1792C42.567 11.3482 42.1084 11.5413 41.6016 11.7585C36.364 13.9549 27.6026 17.6115 28.4836 23.2956C28.8456 25.6006 29.8714 27.2056 31.5609 28.0625V28.0504Z" fill="#E15315"/>
<path d="M223.026 98.1774L222.737 97.7791C220.625 94.6535 218.151 91.7451 215.399 89.1504C212.925 86.8092 210.222 84.7094 207.35 82.8992C207.012 82.694 206.674 82.4889 206.324 82.2716C204.26 81.0407 202.136 79.9425 199.928 79.0253C198.021 78.2168 196.066 77.5289 194.075 76.9617C193.556 76.8169 193.025 76.6721 192.494 76.5393C188.403 75.4894 184.167 74.9705 179.931 74.9705C178.447 74.9705 176.962 75.0308 175.502 75.1635C173.704 75.3084 171.906 75.5618 170.132 75.9118C167.308 76.4669 164.581 77.2272 161.95 78.2168C161.805 78.265 161.648 78.3254 161.503 78.3857C158.172 79.6649 154.998 81.2821 151.981 83.2371C151.257 83.7077 150.545 84.2025 149.845 84.7094C149.689 84.818 149.544 84.9387 149.387 85.0473C146.273 87.3523 143.486 89.959 141.06 92.8191C140.722 93.2174 140.372 93.6277 140.034 94.0501C138.332 96.1499 136.788 98.3946 135.436 100.736C134.434 102.462 133.529 104.248 132.733 106.07C132.504 106.577 132.286 107.096 132.081 107.615C130.138 112.514 128.919 117.667 128.533 122.905C128.28 125.994 128.328 129.12 128.666 132.185C128.775 133.416 128.944 134.671 129.173 136.035L129.354 136.916C129.45 137.423 129.547 137.942 129.668 138.449C129.909 139.547 130.199 140.621 130.512 141.695C131.309 144.446 132.323 147.101 133.554 149.648C135.46 153.606 137.862 157.311 140.722 160.69C141.82 162.005 143.003 163.26 144.234 164.467L144.91 165.119C145.887 166.036 146.901 166.929 148.011 167.822L144.004 174.025L139.72 176.101L138.224 178.478L114.317 208.829L110.383 213.838H125.564L150.111 183.257L150.038 178.49L154.624 172.324C156.314 173.289 158.04 174.146 159.826 174.894C160.477 175.184 161.129 175.449 161.793 175.703C165.534 177.151 169.48 178.165 173.499 178.683C173.837 178.72 174.163 178.768 174.488 178.816C175.611 178.937 176.721 179.033 177.843 179.082C178.676 179.118 179.509 179.142 180.353 179.142C183.576 179.142 186.822 178.828 190.032 178.213C191.275 177.971 192.47 177.682 193.665 177.356C194.533 177.103 195.427 176.837 196.283 176.535L196.464 176.487L196.645 176.451C201.642 174.798 206.384 172.348 210.668 169.162C212.792 167.605 214.796 165.855 216.678 163.96C217.656 162.959 218.609 161.909 219.514 160.835C220.48 159.688 221.397 158.506 222.266 157.275C222.531 156.901 222.785 156.526 223.038 156.14C228.927 147.331 232.657 138.038 232.524 127.394C232.415 117.51 228.879 106.275 223.05 98.1774H223.026ZM220.226 128.637C220.142 131.509 219.732 134.357 219.044 137.133C217.656 142.648 215.11 147.837 211.513 152.375C205.6 159.821 197.176 164.938 187.775 166.772C185.398 167.231 183.033 167.484 180.667 167.521C177.168 167.593 173.692 167.183 170.301 166.338C169.082 166.036 167.875 165.662 166.692 165.24C165.232 164.721 163.784 164.105 162.372 163.405C159.802 162.126 157.376 160.593 155.155 158.819C152.331 156.575 149.809 153.956 147.697 151.023C147.48 150.734 147.275 150.444 147.082 150.155C145.911 148.453 144.873 146.667 143.98 144.82C142.436 141.647 141.325 138.28 140.625 134.732C140.287 132.958 140.058 131.171 139.962 129.434C139.732 126.187 139.938 122.82 140.553 119.465C140.577 119.284 140.625 119.103 140.662 118.91C141.06 116.798 141.651 114.735 142.399 112.731C142.955 111.199 143.63 109.69 144.379 108.23C144.801 107.409 145.247 106.613 145.718 105.829C146.273 104.899 146.889 103.994 147.528 103.125C147.528 103.101 147.552 103.101 147.565 103.077C150.244 99.3721 153.514 96.1982 157.207 93.6639C160.574 91.3468 164.303 89.5487 168.273 88.3419C168.273 88.3419 168.273 88.3419 168.297 88.3419C168.792 88.185 169.299 88.0402 169.806 87.9074C170.627 87.6902 171.459 87.5092 172.316 87.3402C179.473 85.9524 186.858 86.5075 193.653 88.9936C195.33 89.597 196.971 90.3331 198.564 91.1537H198.588C199.964 91.8658 201.292 92.6743 202.571 93.5432C211.417 99.5531 217.415 108.749 219.49 119.393L219.539 119.683C220.094 122.663 220.323 125.668 220.214 128.637H220.226Z" fill="white"/>
<path d="M189.376 99.1197L189.195 99.0473C188.543 98.7818 187.819 98.5405 186.974 98.3232C184.778 97.7681 182.449 97.5147 179.854 97.5509C178.442 97.575 177.103 97.6716 175.836 97.8526C173.772 98.1422 171.913 98.637 170.272 99.349C168.619 100.085 167.147 101.051 165.904 102.245C165.143 103.006 164.54 103.79 164.093 104.635C163.466 105.781 163.14 107.024 163.128 108.34C163.309 111.719 164.986 113.71 167.895 114C168.136 114.036 168.39 114.048 168.643 114.048C171.358 114.012 173.084 112.588 173.627 109.969C173.748 109.474 173.844 108.786 173.989 107.604C174.291 104.321 175.087 103.09 175.691 102.644C176.246 102.245 176.934 101.98 177.767 101.847C178.165 101.763 178.611 101.738 179.094 101.726C183.559 101.666 185.828 103.392 186.202 107.157C186.262 107.628 186.287 108.086 186.299 108.569C186.323 110.319 186.033 112.117 185.466 113.988C185.466 114.036 185.442 114.096 185.418 114.144C185.333 114.458 185.225 114.76 185.104 115.086C185.104 115.122 185.08 115.158 185.056 115.219C184.923 115.569 184.778 115.931 184.621 116.293C184.537 116.534 184.428 116.763 184.319 116.993C184.042 117.596 183.74 118.199 183.402 118.803C183.173 119.213 182.944 119.635 182.69 120.046C179.939 124.463 178.406 127.238 177.803 128.807C177.754 128.94 177.694 129.085 177.646 129.23C177.585 129.362 177.537 129.507 177.501 129.652C176.403 132.717 175.872 136.084 175.908 139.681L175.932 140.561L179.601 140.525L180.482 140.477V139.596C180.409 135.288 181.882 131.281 184.875 127.625C185.333 127.069 185.828 126.502 186.371 125.959C187.023 125.271 188.061 124.306 189.448 123.075C192.043 120.697 193.902 118.682 195.048 116.98L195.072 116.956C195.47 116.389 195.76 115.87 195.989 115.351C196.701 113.746 197.063 112.057 197.039 110.307C197.015 108.593 196.738 107.024 196.182 105.624C195.06 102.692 192.791 100.508 189.4 99.1197H189.376Z" fill="white"/>
<path d="M181.62 146.33L181.704 146.246L180.582 145.715C179.822 145.365 179.037 145.184 178.229 145.196C175.827 145.22 174.126 146.366 173.184 148.575C172.834 149.395 172.665 150.18 172.677 150.988C172.701 153.305 173.836 155.043 175.96 156.033C176.781 156.383 177.577 156.564 178.373 156.552C180.703 156.528 182.44 155.393 183.406 153.281C183.756 152.473 183.925 151.676 183.913 150.844C183.889 148.877 183.116 147.356 181.62 146.33Z" fill="white"/>
<path d="M1207.72 165.644V150.545H1257.2C1261.19 150.545 1265.34 148.364 1265.34 142.492C1265.34 133.097 1254.88 132.425 1246.91 130.077L1229.97 125.379C1211.04 120.178 1206.55 112.293 1206.55 99.5427C1206.55 83.4368 1214.03 76.7261 1231.8 76.7261H1281.45V91.8253H1234.78C1228.47 91.8253 1225.48 93.3352 1225.48 99.8782C1225.48 107.428 1232.79 109.441 1239.27 111.287L1258.2 116.655C1273.81 121.017 1285.6 124.876 1285.6 142.995C1285.6 156.584 1280.78 165.644 1264.01 165.644H1207.72Z" fill="white"/>
<path d="M1204.56 165.645H1180.65L1151.09 133.768C1148.43 130.749 1144.95 125.883 1144.95 119.676C1144.95 112.965 1148.43 109.106 1151.09 106.254L1177.66 76.7269H1200.25L1167.2 112.63C1165.54 114.307 1164.38 116.153 1164.38 119.005C1164.38 121.857 1166.2 124.373 1168.53 126.89L1204.56 165.645ZM1139.14 165.645H1119.71V48.2062H1139.14V165.645Z" fill="white"/>
<path d="M1029.63 76.7261H1079.62C1096.22 76.7261 1104.36 87.7988 1104.36 102.898V150.545C1104.36 160.611 1099.38 165.644 1089.41 165.644H1045.07C1030.13 165.644 1023.15 156.416 1023.15 137.962C1023.15 121.185 1030.13 110.28 1045.07 110.28H1084.93V104.576C1084.93 96.1873 1080.94 91.8253 1072.64 91.8253H1029.63V76.7261ZM1084.93 125.379H1052.55C1045.9 125.379 1043.25 129.573 1043.25 137.962C1043.25 146.35 1045.9 150.545 1052.55 150.545H1079.95C1083.27 150.545 1084.93 148.867 1084.93 145.511V125.379Z" fill="white"/>
<path d="M1010.32 165.644H961.499C933.269 165.644 928.287 149.539 928.287 121.018C928.287 85.7862 940.908 75.7201 970.799 75.7201C995.708 75.7201 1013.14 82.4309 1013.14 110.952C1013.14 121.018 1009.49 127.729 999.528 127.729H948.381C948.381 141.15 950.705 150.545 967.312 150.545H1010.32V165.644ZM948.381 112.629H988.733C992.553 112.629 993.051 109.945 993.051 107.428C993.051 95.6846 982.423 90.8193 970.799 90.8193C954.193 90.8193 948.381 97.5301 948.381 112.629Z" fill="white"/>
<path d="M876.295 165.644V110.28C876.295 86.4567 888.251 76.7261 911.832 76.7261H924.951V91.8253H916.814C901.204 91.8253 895.724 99.7105 895.724 115.481V165.644H876.295Z" fill="white"/>
<path d="M806.32 165.645H784.4V65.8219C784.4 52.4004 791.375 48.2062 801.339 48.2062H876.897V65.8219H814.624C807.981 65.8219 806.32 67.4996 806.32 74.2104V97.5303H857.8V115.146H806.32V165.645Z" fill="white"/>
<path d="M692.178 165.644V150.545H741.664C745.65 150.545 749.801 148.364 749.801 142.492C749.801 133.097 739.34 132.425 731.369 130.077L714.43 125.379C695.499 120.178 691.016 112.293 691.016 99.5427C691.016 83.4368 698.488 76.7261 716.257 76.7261H765.909V91.8253H719.246C712.936 91.8253 709.947 93.3352 709.947 99.8782C709.947 107.428 717.253 109.441 723.73 111.287L742.661 116.655C758.27 121.017 770.061 124.876 770.061 142.995C770.061 156.584 765.245 165.644 748.473 165.644H692.178Z" fill="white"/>
<path d="M659.633 165.644V76.7267H679.062V165.644H659.633ZM679.062 64.9828H659.633V46.8638H679.062V64.9828Z" fill="white"/>
<path d="M600.178 75.7201C631.73 75.7201 647.007 85.7862 647.007 121.018C647.007 156.585 631.73 166.651 600.178 166.651C568.626 166.651 553.349 156.585 553.349 121.018C553.349 85.7862 568.626 75.7201 600.178 75.7201ZM573.442 121.018C573.442 142.828 580.251 151.552 600.178 151.552C620.105 151.552 626.914 142.828 626.914 121.018C626.914 99.2078 620.105 90.8193 600.178 90.8193C580.251 90.8193 573.442 99.2078 573.442 121.018Z" fill="white"/>
<path d="M460.655 165.645V48.2062H480.084V76.7269H506.488C526.416 76.7269 540.697 83.6055 540.697 107.093V165.645H521.268V112.294C521.268 98.8725 516.12 91.8262 502.835 91.8262H480.084V165.645H460.655Z" fill="white"/>
<path d="M328.164 139.305L349.752 58.9431C350.915 54.4134 353.406 46.8638 365.86 46.8638C377.152 46.8638 380.64 53.7423 381.968 58.9431L403.556 139.305C403.888 140.479 404.885 142.157 406.047 142.157C407.542 142.157 408.372 139.976 408.704 138.634L431.787 48.2059H454.039L425.974 150.545C423.484 159.772 420.494 166.987 407.21 166.987C393.925 166.987 390.769 159.772 388.611 151.887L368.185 75.8878C367.687 73.7068 367.023 72.7002 366.026 72.7002C364.864 72.7002 364.366 73.7068 363.701 75.8878L343.11 151.887C340.951 159.772 337.962 166.987 324.677 166.987C311.392 166.987 308.237 159.772 305.746 150.545L277.848 48.2059H300.1L323.182 138.634C323.515 139.808 323.847 142.157 325.673 142.157C326.836 142.157 327.666 140.479 328.164 139.305Z" fill="white"/>
</svg>
